<svg width="40" height="40" viewBox="0 0 40 40" fill="none" xmlns="http://www.w3.org/2000/svg">
<circle cx="20" cy="20" r="20" fill="white"/>
<path d="M12.982 10.4909L20 17.5086L26.9816 10.5272C27.1358 10.3631 27.3216 10.2318 27.5278 10.1412C27.734 10.0506 27.9564 10.0026 28.1816 10C28.6638 10 29.1262 10.1915 29.4672 10.5325C29.8082 10.8734 29.9997 11.3359 29.9997 11.8181C30.0039 12.0409 29.9626 12.2624 29.8782 12.4687C29.7938 12.675 29.6681 12.8619 29.5088 13.018L22.4363 19.9993L29.5088 27.0715C29.8085 27.3646 29.9842 27.7616 29.9997 28.1805C29.9997 28.6627 29.8082 29.1251 29.4672 29.4661C29.1262 29.807 28.6638 29.9986 28.1816 29.9986C27.9499 30.0082 27.7187 29.9695 27.5027 29.885C27.2868 29.8005 27.0907 29.672 26.9271 29.5077L20 22.49L13.0002 29.4895C12.8466 29.6482 12.6631 29.7748 12.4602 29.8622C12.2574 29.9496 12.0393 29.9959 11.8184 29.9986C11.3362 29.9986 10.8738 29.807 10.5328 29.4661C10.1918 29.1251 10.0003 28.6627 10.0003 28.1805C9.99606 27.9576 10.0374 27.7362 10.1218 27.5299C10.2062 27.3235 10.3319 27.1366 10.4912 26.9806L17.5637 19.9993L10.4912 12.9271C10.1915 12.6339 10.0158 12.237 10.0003 11.8181C10.0003 11.3359 10.1918 10.8734 10.5328 10.5325C10.8738 10.1915 11.3362 10 11.8184 10C12.2548 10.0055 12.6729 10.1818 12.982 10.4909Z" fill="black"/>
</svg>
